<svg xmlns="http://www.w3.org/2000/svg" viewBox="0 0 64 64" fill="none">
  <rect width="64" height="64" rx="18" fill="#163057"/>
  <circle cx="32" cy="32" r="22" fill="#F5F1EA"/>
  <path d="M19 40.5C22.4 35.7 27.6 32.9 33.4 32.9C39.2 32.9 44.4 35.7 47.8 40.5" stroke="#163057" stroke-width="2.4" stroke-linecap="round"/>
  <path d="M22.8 43.9C25.4 40.6 29.2 38.8 33.3 38.8C37.4 38.8 41.2 40.6 43.8 43.9" stroke="#C6A15B" stroke-width="2.4" stroke-linecap="round"/>
  <path d="M19.6 25.1H44.4" stroke="#163057" stroke-width="3" stroke-linecap="round"/>
  <path d="M23.7 21.8H40.3C40.9 21.8 41.2 22.5 40.9 23L37.9 27.9C37.7 28.2 37.7 28.6 37.9 28.9L40.6 33.4C40.9 33.9 40.6 34.6 40 34.6H23.4C22.8 34.6 22.5 33.9 22.8 33.4L25.8 28.5C26 28.2 26 27.8 25.8 27.5L23.1 23C22.8 22.5 23.1 21.8 23.7 21.8Z" fill="#163057"/>
  <path d="M41.8 20.4L46.9 25.5" stroke="#C6A15B" stroke-width="3.2" stroke-linecap="round"/>
  <path d="M45.7 16.4L50.9 21.6" stroke="#C6A15B" stroke-width="3.2" stroke-linecap="round"/>
  <path d="M38.7 28.5L48.3 18.9" stroke="#F5F1EA" stroke-width="2" stroke-linecap="round"/>
  <circle cx="32.1" cy="44.4" r="2.8" fill="#163057"/>
</svg>
